<?xml version="1.0" encoding="utf-8"?>
<!-- Generator: Adobe Illustrator 24.2.0, SVG Export Plug-In . SVG Version: 6.00 Build 0)  -->
<svg version="1.1" id="Layer_1" xmlns="http://www.w3.org/2000/svg" xmlns:xlink="http://www.w3.org/1999/xlink" x="0px" y="0px"
	 viewBox="0 0 1242.3 1256.3" style="enable-background:new 0 0 1242.3 1256.3;" xml:space="preserve">
<g id="flag1_Image">
	<path d="M1243.3,532.7c-7.3,5.8-14.7,11.5-21.8,17.5c-42.3,35.7-84.5,71.5-126.7,107.3c-21.5,18.3-42.8,36.7-64.1,55.2
		c-8,7-16.4,9-27,6.1c-32-8.8-58.4-26.6-82.3-48.9c-12.9-12-24.7-24.7-34.4-39.5c-12.8-19.7-17.9-42.2-23.5-64.5
		c-6.2-24.8-11.4-50-18.9-74.4c-11.3-36.5-33.7-65.6-64.5-88.3c-3.5-2.6-7.2-5.2-10.4-8.2c-4.7-4.2-4.7-6.8,0-10.9
		c12.8-11.1,25.8-22.1,38.7-33.1c9-7.7,17.9-15.4,27-22.9c10-8.3,20.4-16.3,30.4-24.7c28.3-24.1,56.6-48.4,84.8-72.7
		c14.6-12.6,16.6-12.8,32.4-1.5c31.7,22.6,54.2,52.2,65.5,89.4c7.4,24.3,12.8,49.1,18.8,73.8c4.7,19.3,9.9,38.4,17.8,56.9
		c13,30.5,36.9,49.5,65.1,64c27.5,14,57.1,19.2,87.9,18.1c1.6-0.1,3.2,0.2,4.8,0.2L1243.3,532.7z"/>
</g>
<g id="flag1_copy_Image">
	<path d="M909,1248.7c-1.7-1-3.4-2-5.1-3c-44.7-28.6-89.4-57.2-134.1-85.8c-32.2-20.7-64.3-41.6-96.5-62.4
		c-8.3-5.4-12.7-12.3-13.1-22.7c-1.3-34.4,8.7-65.8,23.7-96.1c10.6-21.4,23-41.7,41.8-57c10.5-8.6,21.5-16.5,33-23.7
		c21.8-13.6,44.1-26.3,66-39.8c35.4-21.7,57.6-53.7,71-92.4c1.3-3.8,3.1-7.5,4.7-11.2c2-4.3,5.2-5.8,9.4-3.1
		c23.6,15.1,47.1,30.4,70.6,45.5c21.9,14.1,43.8,28.1,65.7,42.1c24.1,15.3,48.3,30.3,72.4,45.7c6.5,4.1,7.7,8.4,5.8,15.7
		c-6.4,23.6-16.5,45.3-31.9,64.3c-12.5,15.7-27.6,29.1-44.6,39.8c-21.6,13.4-44,25.6-65.7,38.9c-11.5,7.1-22.3,15.3-33.2,23.4
		c-36.1,26.9-48.4,65.3-50.9,107.9c-1.4,23.3,2.8,45.9,10.4,67.9c0.6,1.7,1,3.4,1.5,5.2L909,1248.7z"/>
</g>
<g id="flag1_copy_2_Image">
	<path d="M126.7,1155.2c2.1-5.9,4.1-10.4,5.4-15c5.3-20,10.4-40,15.6-60c3.4-12.8,6.8-25.6,10.3-38.4c2.6-9.7,5.4-19.3,8.1-28.9
		c7-25.3,14.1-50.7,21.1-76c5-17.8,9.9-35.7,15.1-53.4c2.9-9.7,8.4-16.7,19.4-18.2c3.3-0.4,6.4-2.1,9.7-3.2
		c20.1-6.4,40.9-7,61.5-5.8c22.7,1.4,45.3,5.3,66.5,13.5c19.2,7.5,37.1,17.9,52.3,32.2c13.9,13.1,27.9,26,42,38.8
		c8.8,8,17,16.8,26.9,23.1c17.2,10.9,34.8,20.9,54.8,26.5c18.2,5.1,37,7.6,55.9,7.5c10.1,0,11.6,1.6,9.3,11.4
		c-4.6,19.4-9.7,38.6-14.8,57.9c-2.3,9-5,17.8-7.5,26.7c-7.1,26-14.2,51.9-21.2,77.9c-3.1,11.3-6.3,22.6-9.4,33.8
		c-3.1,11.1-6,22.3-9.3,33.4c-1.2,4.4-3.1,8.5-5.6,12.3c-1.9,2.3-4.6,3.8-7.5,4.2c-6.6,0.8-13.2,0.8-19.8,0.2
		c-13.1-1.6-26.7-2.3-39.1-6.3c-18.6-6-36.9-13.6-52.2-26.6c-8.2-6.9-17.2-13.1-25.4-20c-8-6.8-15.4-14.4-23.3-21.5
		s-15.9-13.9-24-20.7c-8.3-6.9-16.2-14.3-25.1-20.4c-8.4-5.7-17.6-10.3-26.8-14.7c-11.4-5.3-23.7-8.2-36.3-8.5
		c-9.4-0.2-18.8-0.8-28.1-0.3c-24,1.2-46.2,8.5-67,20.2C148,1142.7,138.2,1148.5,126.7,1155.2z"/>
</g>
<g id="flag1_copy_3_Image">
	<path d="M0.7,379.9h7.7c91-0.2,181.9-0.5,272.9-0.8c12.6,0,20.5,6.1,26.7,16.2c14.5,23.6,22.6,49.5,26.5,76.6
		c2.2,16.4,3.3,33,3.2,49.6c0,22.5-7,43.5-16.6,63.6c-10.5,21.9-21.7,43.4-32.2,65.2c-13.8,28.8-22.6,58.9-20,91.2
		c1.2,14.4,4.4,28.7,6.7,43.1c0.2,1.5,0.6,2.9,0.8,4.3c1,7.2-0.5,9.3-7.6,9.4c-22.9,0.3-45.8,0.4-68.6,0.5
		c-56.8,0.2-113.7,0.3-170.5,0.4c-16.9,0-18.4-1.4-23-17.9c-5.9-20.8-7.8-42.5-5.6-64.1c2.5-24.5,10.9-47.3,21.7-69.2
		c11.6-23.6,24-46.8,35.7-70.4c15-30.4,20.2-62.3,11.8-95.6c-7.2-28.7-21.8-55.1-42.3-76.4C19.5,397.1,10.5,389.2,0.7,379.9z"/>
</g>
<g id="flag1_copy_4_Image">
	<path d="M668.2,0c1.3,2.9,2.1,4.6,2.8,6.4c11.9,31.9,23.8,63.8,35.6,95.6c19.8,52.9,39.2,105.9,59.6,158.6
		c5.5,14.2,1,24.5-7.3,35.4c-11.8,15.5-26.8,27.1-42.6,37.8c-19.6,13.4-41,23.9-63.6,31.3c-25.9,8.4-52.5,7.9-79.2,4.6
		c-27.7-3.4-55.2-8.7-83.2-8.2c-28.4,0.4-55.5,6.3-80.5,20.1c-8.7,4.8-16.8,10.4-25.1,15.9s-11.4,4.9-14.9-4.1
		c-8.6-22.3-16.9-44.8-25.3-67.2c-19.4-51.7-38.8-103.3-58.1-155c-5.6-14.9-5.2-16.7,7.7-26.3c26.2-19.5,55.6-30.4,88.1-33.1
		c24.5-2,48.7,1.1,73,4c22,2.6,44.1,5,66.2,6.4c18,1.1,35.5-2.6,52.1-9.9c6.2-2.7,12.8-4.8,18.5-8.3c23.1-14.5,42-33.4,55.3-57.2
		c7.3-13.1,12.6-27.2,18.8-40.9C666.7,4.3,667.2,2.8,668.2,0z"/>
</g>
<g id="pent_Image">
	<path d="M584.5,1057.5c-5-15.6-9.9-31.3-14.9-46.8c-6.6-20.4-13.4-40.6-19.9-61c-6.2-19.7-12-39.5-18.3-59.1
		c-9.1-28.1-18.5-56-27.8-84c-0.5-1.3-0.7-2.8-1.2-4.7c13.1-0.4,25.8-1,38.4-1c1.2,0,3.1,2.7,3.7,4.5c7.5,23.3,14.7,46.7,22.4,70
		c7.2,21.8,14.8,43.6,22.9,67c31.8-99.6,63-197.8,94.6-296.8c9.5,7.7,18.5,14.8,27.2,22.1c0.8,0.7,0.9,3,0.5,4.3
		c-22.6,70.6-45.3,141.2-68,211.8c-18.1,56.2-36.2,112.4-54.3,168.6c-0.6,1.8-1.2,3.5-1.9,5.2L584.5,1057.5z"/>
	<path d="M588.9,570.4l31.8-24.7C732.2,625.1,843.7,704.6,955,784c0.5,0.3,0.3,1.7,0.5,3.2l-273.2,4.6c3.3-11.1,6.3-21.5,9.8-31.8
		c0.5-1.3,3.7-2.5,5.6-2.5c40.6-0.6,81.2-1.1,121.8-1.4c7.5-0.1,15,0,22.6,0c0.2-0.5,0.4-1.1,0.7-1.6L588.9,570.4z"/>
	<path d="M527.7,754.6c-13.5,0-25.8,0.2-38.2-0.2c-1.5,0-3.6-2.7-4.2-4.5c-7.7-22.9-15.1-45.9-22.6-68.8
		c-23.9-72.5-47.7-145-71.6-217.6c-11.1-33.6-22.2-67.2-33.4-100.8c-0.4-1.2-0.7-2.4-1.5-5.1l226.4,160.5
		c-11.1,7.4-21.2,14.3-31.7,20.9c-1.2,0.7-4.1-0.2-5.6-1.3c-23.7-17-47.3-34.1-70.8-51.4c-10.9-7.9-21.7-16-32.7-23.7
		c-4.5-3.2-9.3-5.8-14.8-9.2L527.7,754.6z"/>
	<path d="M441.3,628.5c3.2,12,6.3,23.2,8.9,34.5c0.3,1.4-1.6,3.8-3.1,5c-19.5,14.2-39.2,28.2-58.7,42.4
		c-16,11.6-31.9,23.3-47.7,35.2c-6.6,4.9-12.9,10.2-20.4,16.2l319-3.6c-3.3,11.3-6.3,21.9-9.8,32.3c-0.4,1.2-3.5,2.2-5.3,2.2
		c-25.5,0.6-51,0.9-76.4,1.3c-90.5,1.5-180.9,3-271.4,4.4c-8.6,0.1-17.3-0.9-25.9-1.6c-1.6-0.2-3.2-0.8-4.6-1.7
		c-5-3-10-6.2-15.7-9.7L441.3,628.5z"/>
	<path d="M745.9,446.6L493.2,633.3c-3.2-11.4-6.6-22.4-9.4-33.6c-0.3-1.3,1.8-3.7,3.3-4.9c16.8-12.7,33.7-25.2,50.6-37.8
		c41.2-30.8,82.2-61.9,123.6-92.6c32.1-23.9,64.6-47.2,96.8-71c16.5-12.1,32.6-24.7,48.9-37.1c1.7-1.3,3.5-2.5,6.7-4.7
		c-28,88.5-55.4,175.4-83.1,263c-9.7-6.6-19-12.8-28-19.4c-1-0.7-0.8-4-0.2-5.8c14.4-45.3,28.8-90.7,43.3-136
		c0.6-1.9,1.2-3.8,1.7-5.7L745.9,446.6z"/>
</g>
</svg>
